<svg xmlns="http://www.w3.org/2000/svg" xmlns:xlink="http://www.w3.org/1999/xlink" width="1920" height="718" viewBox="0 0 1920 718">
  <defs>
    <linearGradient id="linear-gradient" x1="2.515" y1="-0.869" x2="1.448" y2="1.761" gradientUnits="objectBoundingBox">
      <stop offset="0" stop-color="#fff"/>
      <stop offset="1"/>
    </linearGradient>
    <linearGradient id="linear-gradient-7" x1="0.857" y1="-0.622" x2="0.5" y2="1" gradientUnits="objectBoundingBox">
      <stop offset="0" stop-color="#fff"/>
      <stop offset="0.743" stop-color="#0a0a0a"/>
      <stop offset="1"/>
    </linearGradient>
    <linearGradient id="linear-gradient-10" x1="0.5" x2="0.5" y2="1" gradientUnits="objectBoundingBox">
      <stop offset="0" stop-color="#ea90a8"/>
      <stop offset="1" stop-color="#86bae3"/>
    </linearGradient>
    <clipPath id="clip-robust_it_logo_svg">
      <rect width="1920" height="718"/>
    </clipPath>
  </defs>
  <g id="robust_it_logo_svg" data-name="robust it logo svg" clip-path="url(#clip-robust_it_logo_svg)">
    <g id="Group_2" data-name="Group 2" transform="translate(0 -60)">
      <path id="Subtraction_4" data-name="Subtraction 4" d="M54,242.984H2.784A5.422,5.422,0,0,1,.848,240.4a11.882,11.882,0,0,1-.828-4.008A24.6,24.6,0,0,1,.7,229.881C3.063,219.391,41.921,2.193,42.314,0L178.195,1.51a63.2,63.2,0,0,1,8.371,1.518,73.488,73.488,0,0,1,18.208,7.038,48.544,48.544,0,0,1,17.689,16.285,43.625,43.625,0,0,1,5.414,12.775,55.448,55.448,0,0,1,1.4,16.485A109.288,109.288,0,0,1,223.154,86.8a83.267,83.267,0,0,1-10.769,20.524,66.634,66.634,0,0,1-10.25,11.276,36.551,36.551,0,0,1-4.565,3.444l-8.954,5.195c-.329.164-8.038,4.014-8.819,4.237-.75.215-9.616,2.894-10.625,3.2l-.028.008c-.085.011-8.506,1.123-8.57,1.627,0,.033.028.064.094.09,1.132.452,14.865,14.519,15,14.661l5.727,8.475,12.141,22.907,14.89,32.528,9.277,21.074a11.072,11.072,0,0,1-.516,3.25,5.918,5.918,0,0,1-1.321,2.307,3.98,3.98,0,0,1-2.631,1.2c-1.351.1-7.171.153-17.3.153-16.912,0-40.562-.146-41.561-.153h-.01l-39.514-81.2-6.3-8.247-5.5-4.581-7.1-2.864-3.779-.8H71.1L54,242.983ZM88.658,47.6l-10.366,52.44L149.351,97.9a59.511,59.511,0,0,0,11.588-7.077c5.318-4.178,11.717-10.965,12-19.567S169.969,57,167.183,53.767a20.981,20.981,0,0,0-6.175-5L88.658,47.6h0Z" transform="translate(86.786 325.335)" fill="url(#linear-gradient)"/>
      <path id="Subtraction_3" data-name="Subtraction 3" d="M100.685,250.061A141.229,141.229,0,0,1,84,249.071a122.049,122.049,0,0,1-28.408-6.808,103.6,103.6,0,0,1-19.76-9.875,83.674,83.674,0,0,1-11.541-8.894,43.232,43.232,0,0,1-3.752-3.864,122.441,122.441,0,0,1-9.609-13.657,92.211,92.211,0,0,1-6.813-13.391,46.058,46.058,0,0,1-3.532-14.5c-.381-7.36-.775-18.548-.49-30.054.271-11,1.1-19.7,2.453-25.883q.088-.4.2-.9c.556-2.573,1.486-6.878,3.083-12.527a183.059,183.059,0,0,1,6.989-20.167c7.883-19.038,18.516-35.469,31.6-48.837A132.4,132.4,0,0,1,60.967,25.288,119.941,119.941,0,0,1,81.517,13.2a134.734,134.734,0,0,1,25.718-8.727A182,182,0,0,1,139.286.132C141.019.045,142.771,0,144.494,0a100.847,100.847,0,0,1,16.387,1.341,103.327,103.327,0,0,1,14.581,3.527,120.559,120.559,0,0,1,23.687,10.639,72.166,72.166,0,0,1,17.167,13.715,75.619,75.619,0,0,1,11.53,16.7c5.341,10.441,8.8,22.7,10.278,36.429a155.964,155.964,0,0,1,.113,30.566,123.392,123.392,0,0,1-1.8,12.827c-.009.056-.952,5.7-3.143,14.144a220.126,220.126,0,0,1-10.923,31.98A182.355,182.355,0,0,1,214.1,189.1a67.789,67.789,0,0,1-12.009,15.813c-4.472,5.76-13.131,12.837-19.608,17.759-7.462,5.671-14.527,10.387-16.951,11.789a112.528,112.528,0,0,1-20.738,8.7,146.625,146.625,0,0,1-19.662,4.8A144.6,144.6,0,0,1,100.685,250.061ZM125.538,47.7h0c-42.5,0-59.605,48.908-66.043,67.319-.293.838-.569,1.627-.82,2.334-2.5,7.025-5.225,18.99-4.69,29.587a86.958,86.958,0,0,0,4.69,23.452,51.318,51.318,0,0,0,6.269,10.148,73.084,73.084,0,0,0,22.235,19.078,29.78,29.78,0,0,0,14.706,3.491c10.061,0,20.635-3.795,27.733-6.978a106.357,106.357,0,0,0,13.126-6.977c.047-.024,4.764-2.514,11.23-9.426,5.967-6.378,14.683-17.933,22.325-36.757a101.96,101.96,0,0,0,6.991-47.4,83.19,83.19,0,0,0-4.1-20.07,21.066,21.066,0,0,0-1.781-4.189,35.884,35.884,0,0,0-7.329-9.3c-6.749-6.214-19.723-13.738-43.207-14.3-.443-.011-.889-.016-1.327-.016Z" transform="translate(309.159 321.756)" fill="url(#linear-gradient)"/>
      <path id="Subtraction_2" data-name="Subtraction 2" d="M9.4,243.088c-1.92,0-3.159-.014-3.685-.038a5.6,5.6,0,0,1-4.389-2c-1.961-2.507-1.18-6.466-1.172-6.506l.132-.737C4.526,210.135,41.7,2.45,41.7,0l.745.012c32.1.559,136.9,2.417,138,2.857.152.061.758.231,1.6.467l.077.022.025.007c2.29.644,6.124,1.721,8.87,2.776,5.521,2.121,9.412,4.434,9.563,5.033a5.082,5.082,0,0,0,1.207.983l.007.005a48.128,48.128,0,0,1,12.433,12.654c5.841,8.792,8.615,19.441,8.245,31.651a55.916,55.916,0,0,1-5.929,22.859A83.3,83.3,0,0,1,204.48,97.231a102.642,102.642,0,0,1-17.237,15.853h.007a40.49,40.49,0,0,1,10.553,6.471,47.16,47.16,0,0,1,8.68,9.443,49.612,49.612,0,0,1,6.929,14.783,55.471,55.471,0,0,1,1.777,16.139,142.1,142.1,0,0,1-2.029,20.1,50.516,50.516,0,0,1-4.44,13.72,94.27,94.27,0,0,1-6.632,11.443,72.888,72.888,0,0,1-18.209,18.66,96.875,96.875,0,0,1-20.1,11.011,113.726,113.726,0,0,1-16.265,5.235c-3.923.937-6.42,1.291-6.692,1.329-1.039.017-109.005,1.673-131.418,1.673h0ZM71.566,139.811l-10.1,54.122H132.9a55.182,55.182,0,0,0,13.486-6.63c6.049-4.156,13.064-11.262,12.132-21.513s-4.9-16.377-8.073-19.71a19.823,19.823,0,0,0-6.72-4.826l-72.162-1.444ZM87.855,46.677h0l-8.049,45.24h64.114a66.961,66.961,0,0,0,12.212-6.73c5.571-3.925,12.212-10.229,12.212-17.971a23.016,23.016,0,0,0-5.968-15.889,21.356,21.356,0,0,0-5.967-4.649H87.855Z" transform="translate(533.682 325.997)" fill="url(#linear-gradient)"/>
      <path id="u" d="M837.1,360.486H789.014l-25.481,162.69s-6.939,41.632,10.761,60.406,24.534,19.954,54.3,21.59a287.025,287.025,0,0,0,55.61-2.617s49.068-2.944,66.732-70.331,30.1-165.85,30.1-165.85l-1.654-3.99-2.978-1.6H928.526l-31.141,167.2a39.143,39.143,0,0,1-27.248,28.29c-23.376,7.147-44.222-3.573-44.222-3.573s-13.1-7.147-9.976-33.8,26.355-153.658,26.355-153.658Z" transform="translate(-2 -35)" fill="url(#linear-gradient)"/>
      <path id="s" d="M963.515,517.043h55.609s-.108,2.427,0,7.1a52.957,52.957,0,0,0,1.75,10.612s8.205,22.045,31.341,21.816,33.174-2.956,33.174-2.956,21.056-9.812,21.514-20.693-2.223-16.718-10.011-19.7-77.769-25.2-77.769-25.2-32.757-17.982-32.871-46.5,17.295-49.021,17.295-49.021,20.158-32.871,67.575-34.7,61.39,6.987,61.39,6.987,33.329,11.912,35.735,42.607,1.374,28.061,1.374,28.061H1114.76l-1.489-17.982s-1.833-11.11-20.845-14.431a70.431,70.431,0,0,0-34.166,2.507s-31.691,18.682-13.595,29.906,61.39,20.387,62.077,20.387,32.757,9.85,41.461,24.4,13.744,27.832,10.881,46.386-8.759,38.5-22.636,50.67-20.709,14.731-20.709,14.731-21.169,14.314-52.094,14.658c-11.968.133-25.837,1.828-37.149,0a97.319,97.319,0,0,1-30.383-10.534s-13.59-8.934-22.992-21.844a54.839,54.839,0,0,1-9.607-23.912C960.953,530.969,963.515,517.043,963.515,517.043Z" transform="translate(-2 -35)" fill="url(#linear-gradient)"/>
      <path id="t" d="M1263.221,603.171s-50.029.6-50.475,0-3.871-3.871-3.871-5.36,34.246-191.181,34.246-191.181h-65.96s-3.722-3.722-3.276-5.509,7-41.095,7-41.095,189.245.3,189.394.744,3.722,2.233,3.276,4.169-7.3,42.733-7.3,42.733l-69.683-1.042Z" transform="translate(-2 -35)" fill="url(#linear-gradient)"/>
      <path id="I" d="M1444.869,361.091,1403.349,596.87l1.761,4.529h49.823l42.274-236.03s-2.768-3.774-5.787-4.278-46.552-1.007-46.552-1.007Z" transform="translate(-2 -35)" fill="#85bce6"/>
      <path id="T-2" data-name="T" d="M1516.08,360.085s-6.542,41.519-6.039,42.274-2.516,3.775,3.523,4.026,65.424,0,65.424,0l-34.474,190.737s.252,5.284,4.529,5.284h48.062l34.725-196.021h69.954l6.291-39.255s-.5-4.026-6.291-5.033S1516.08,360.085,1516.08,360.085Z" transform="translate(-2 -35)" fill="#85bbe5"/>
      <path id="star_1" data-name="star 1" d="M87.15,738.834l14.433-28.865-25.257-18.6s31.918.278,32.2,0,12.212-28.032,12.212-28.032,2.775,26.922,6.384,26.922,32.473,1.11,32.473,1.11-27.477,17.763-27.477,18.6,7.494,30.53,7.494,30.53l-24.7-19.984Z" transform="translate(-3.326 -34)" fill="url(#linear-gradient-7)"/>
      <path id="star_2" data-name="star 2" d="M94.007,778.794l23.575-44.144L76.326,706.211s52.137.425,52.591,0,19.948-42.87,19.948-42.87,4.534,41.172,10.427,41.172,53.044,1.7,53.044,1.7-44.883,27.165-44.883,28.439,12.241,46.69,12.241,46.69l-40.35-30.561Z" transform="translate(109.674 -48)" fill="url(#linear-gradient-7)"/>
      <path id="star_3" data-name="star 3" d="M96.564,809.221l26.984-55.777L76.326,717.51s59.676.536,60.2,0,22.833-54.169,22.833-54.169,5.189,52.023,11.935,52.023S232,717.51,232,717.51s-51.374,34.325-51.374,35.934,14.011,59,14.011,59l-46.184-38.615Z" transform="translate(274.674 -60)" fill="url(#linear-gradient-7)"/>
      <path id="Subtraction_5" data-name="Subtraction 5" d="M360.691,694.931a296.93,296.93,0,0,1-109.838-20.976,308.434,308.434,0,0,1-49.179-24.827,322.1,322.1,0,0,1-44.21-33.148,314.572,314.572,0,0,0,141.5,35.84c1.692.026,3.321.039,4.981.039,84.382-.006,164.162-33.007,224.643-92.923a324.9,324.9,0,0,0,96.507-225.62c1.685-85.39-29.323-166.44-87.31-228.221C479.863,43.387,401.609,7.866,317.433,5.074A298.014,298.014,0,0,1,485.171,29.16a312.94,312.94,0,0,1,54.322,31.947,329.241,329.241,0,0,1,47.329,42.311,344.563,344.563,0,0,1,39.05,51.281,356.564,356.564,0,0,1,29.485,58.858A366.148,366.148,0,0,1,673.992,278.6a378.524,378.524,0,0,1,0,139.664A366.15,366.15,0,0,1,655.358,483.3a356.554,356.554,0,0,1-29.485,58.858,344.564,344.564,0,0,1-39.05,51.281,329.238,329.238,0,0,1-47.329,42.311A312.953,312.953,0,0,1,485.171,667.7a297.62,297.62,0,0,1-124.48,27.23Z" transform="translate(1167.511 70.069)" fill="url(#linear-gradient-10)"/>
      <text id="Est._2011" data-name="Est. 2011" transform="translate(673 608)" font-size="130" font-family="TimesNewRomanPS-BoldItalicMT, Times New Roman" font-weight="700" font-style="italic"><tspan x="0" y="116">Est. 2011</tspan></text>
    </g>
  </g>
</svg>
